<?xml version="1.0" encoding="utf-8" ?><svg xmlns="http://www.w3.org/2000/svg" xmlns:xlink="http://www.w3.org/1999/xlink" width="493" height="449" viewBox="0 0 493 449"><path fill="#FFFFFF" d="M388.393 31.112C389.459 31.1054 390.525 31.1084 391.59 31.1209C410.487 31.3569 429.735 37.1597 442.963 51.13C472.444 82.2631 464.595 129.559 453.584 166.426C446.772 189.771 437.48 212.319 425.867 233.686C422.306 240.273 417.573 247.415 413.539 253.774C394.113 284.849 371.03 313.482 344.785 339.059C302.901 379.828 252.364 414.556 194.806 428.302C183.648 430.967 170.912 433.4 159.475 433.242C171.815 426.086 186.637 419.634 199.612 413.674C212.165 407.992 224.482 401.804 236.533 395.125C240.773 392.662 245.201 390.27 249.334 387.648C271.026 373.891 289.306 357.19 307.333 339.003C332.138 314.197 354.731 287.274 374.854 258.541C378.605 253.226 383.591 246.733 386.94 241.437C392.41 232.433 398.209 223.016 402.751 213.497C416.901 183.839 428.047 150.174 428.354 117.1C428.595 91.1515 419.86 65.3369 393.985 54.7943C365.095 43.0231 334.723 53.8348 307.171 64.1906C301.39 66.8876 294.276 69.0731 288.619 71.8341C278.796 76.6278 277.222 78.6067 265.971 77.6474C272.567 72.3589 282.972 66.0379 290.338 61.8536C320.82 44.5399 352.941 31.8444 388.393 31.112Z"/><path fill="#1079F7" d="M415.663 104.382C418.251 109.986 418.6 116.006 418.51 122.101C417.693 177.724 383.648 231.46 350.744 273.903C325.26 307.365 295.862 337.658 263.178 364.134C246.631 377.298 232.827 385.621 215.202 396.753C208.993 400.653 202.744 404.487 196.455 408.256C190.472 411.906 184.067 416.006 177.672 418.898C157.543 428.001 134.794 433.408 112.852 435.632C109.968 435.925 106.077 436.311 103.245 436.33C92.0802 436.402 81.8982 435.189 71.4256 431.354C55.0125 425.345 42.25 413.726 35.1688 397.65C20.238 363.755 28.3324 316.596 40.8284 283.318C42.2194 279.591 43.7652 275.925 45.462 272.327C47.0441 269.316 48.8992 266.328 50.3561 263.254C52.3498 260.236 54.3876 256.298 56.4435 253.453C63.6099 243.538 72.122 233.709 81.3462 225.68C82.852 224.369 85.0794 222.269 86.6837 221.276C81.6989 238.219 69.5665 249.83 61.2844 265.115C56.4134 274.104 53.3534 282.439 50.6657 292.291C43.3669 316.586 37.6174 345.424 50.5223 368.9C61.6315 389.109 80.7593 399.462 103.501 399.911C139.467 400.62 173.666 387.858 204.799 370.704C248.944 346.11 295.429 306.993 328.637 268.837C341.189 254.127 352.919 238.735 363.773 222.732C371.86 210.808 379.754 199.04 386.022 186.012C392.226 173.114 396.979 159.731 401.315 146.106L407.847 125.355C409.778 119.196 412.022 109.284 415.663 104.382Z"/><path fill="#9D9C9C" d="M146.327 164.63C149.242 163.454 179.688 163.016 183.246 163.764C183.21 167.823 182.503 194.561 183.696 196.367L183.9 196.357C184.54 200.613 184.085 201.394 184.316 204.598L183.481 204.873C182.508 206.16 183.011 238.853 183.152 243.339C186.49 243.124 190.557 243.152 193.958 243.086L194.019 250.369C190.496 250.641 185.036 250.497 181.433 250.5C173.538 250.547 165.643 250.513 157.749 250.398C140.94 250.227 123.854 250.402 107.045 250.497C107.24 248.345 107.097 245.519 107.05 243.31C117.008 243.087 127.112 243.493 137.082 243.323C140.041 243.272 143.244 243.272 146.19 243.422C146.34 237.453 146.215 231.032 146.236 225.009L146.336 184.628C146.357 180.622 146.333 176.617 146.266 172.613C146.232 170.624 146.03 166.436 146.327 164.63ZM152.739 187.831C154.637 187.59 158.844 187.255 160.716 187.495C160.311 182.561 160.609 176.555 160.803 171.575C158.645 171.842 154.559 171.861 152.402 171.56C152.802 173.524 152.903 185.515 152.739 187.831ZM168.21 176.887C168.242 179.846 168.412 189.83 168.068 192.257C170.385 192.251 172.7 192.313 175.013 192.445C174.741 190.009 175.066 180.158 175.089 177.007C172.727 177.013 170.576 177.011 168.21 176.887ZM168.296 203.558C167.791 205.776 168.532 215.926 168.358 219.086C170.896 218.852 172.583 218.723 175.177 218.818C174.966 214.974 174.945 207.196 175.007 203.363C172.898 203.467 170.37 203.658 168.296 203.558ZM161.529 201.072C159.87 201.267 155.591 201.3 153.897 201.117C152.899 202.503 153.971 213.633 153.519 216.362C156.088 216.449 158.659 216.504 161.229 216.527C161.737 215.8 161.464 203.215 161.529 201.072Z"/><path fill="#FFFFFF" d="M151.231 149.904C151.966 152.304 152.321 151.715 154.737 152.256L155.478 152.388C159.066 152.63 163.62 151.918 167.594 152.334L168.739 152.238C171.28 152.296 178.211 152.35 180.55 152.779L182.096 152.998L182.452 152.833C187.626 153.395 193.126 153.82 198.219 154.83C210.59 157.284 227.795 163.389 233.427 175.537C234.547 178.244 234.952 181.193 234.603 184.101C234.251 187.264 232.838 190.904 230.836 193.388C223.234 202.82 212.91 204.99 201.479 203.736C209.556 201.128 226.06 192.615 227.042 183.919C228.413 171.783 204.825 166.459 195.748 165.083C191.491 164.437 187.305 164.22 183.246 163.764C179.688 163.016 149.242 163.454 146.327 164.63C141.708 165.672 136.445 166.153 131.695 167.027C117.811 169.584 104.007 173.977 92.5523 182.479C87.9098 185.929 80.5237 191.807 82.659 198.226C86.2641 209.062 101.714 209.709 111.183 209.513C113.399 209.467 115.738 209.645 117.793 209.392C117.469 211.326 117.102 217.798 117.14 219.902L116.813 220.158C114.379 219.865 110.445 219.891 107.875 219.907C95.3194 220.268 72.8786 212.868 70.9196 198.276C67.9669 176.282 101.277 161.422 118.679 157.015C119.95 156.693 121.904 156.656 122.612 155.67L122.999 156.106L123.553 155.81C124.098 156.035 126.692 155.392 127.485 155.205C134.208 153.616 141.04 153.095 147.93 152.624C148.965 152.556 149.98 152.738 150.908 152.324C151.445 151.357 151.25 151.113 151.231 149.904Z"/><path fill="#9D9C9C" d="M151.231 149.904C151.966 152.304 152.321 151.715 154.737 152.256L155.478 152.388C153.5 152.976 150.093 152.699 147.93 152.624C148.965 152.556 149.98 152.738 150.908 152.324C151.445 151.357 151.25 151.113 151.231 149.904Z"/><path fill="#FFFFFF" d="M139.794 57.4074C144.42 59.8516 154.292 68.4822 159.214 72.2935L183.7 91.4321C186.454 93.586 193.461 98.7584 195.54 100.808C195.355 93.3212 195.28 83.6865 195.831 76.3005C199.939 76.2199 203.718 76.4344 207.738 76.4189C207.455 82.7618 207.496 89.359 207.511 95.7197C207.52 100.081 207.359 105.987 207.837 110.269C214.659 116.004 221.081 120.734 227.931 126.205L284.832 170.986L303.76 185.755C306.127 187.573 313.08 192.661 315.019 194.565C314.362 195.509 314.611 196.049 314.612 197.408C310.409 194.764 304.782 190.339 300.695 187.309L279.784 171.956L218.541 127.165L163.333 86.8571C155.927 81.3399 147.504 75.8398 140.723 69.7501C137.008 72.9508 131.342 76.6718 127.25 79.4905L105.927 94.1397C88.755 105.966 72.3007 118.112 54.7761 129.546C53.7087 128.385 53.61 129.77 53.0402 127.591C60.0249 121.573 67.2121 116.043 74.3754 110.252L111.978 79.7659C117.191 75.5501 122.363 71.2849 127.495 66.9708C130.795 64.2094 136.21 59.366 139.794 57.4074Z"/><path fill="#E0E0E0" d="M155.442 85.0671C156.119 87.4251 155.317 89.1467 156.806 91.0392C161.961 95.6012 167.197 99.6381 172.527 103.969C174.821 105.833 179.019 109.154 180.885 111.283C182.22 117.58 181.147 130.109 181.481 136.98C181.629 140.019 181.266 142.202 181.885 145.566C181.222 145.917 181.273 145.898 180.522 145.853C177.133 146.15 171.826 146.39 168.521 145.998C168.049 146.251 167.92 146.127 167.279 146.076C165.248 146.447 157.054 146.237 154.981 145.926C154.644 147.531 154.91 150.384 154.737 152.256C152.321 151.715 151.966 152.304 151.231 149.904C150.937 149.089 151.016 146.952 151.024 146.007L142.242 145.988C139.293 146.136 125.683 146.475 123.68 145.99C123.796 148.413 123.833 153.435 123.553 155.81L122.999 156.106L122.612 155.67L122.45 155.084C122.666 150.479 122.503 145.328 122.624 140.608C122.551 133.043 122.389 125.759 122.542 118.171L123.501 117.716L123.498 117.999L123.497 119.216C123.619 120.843 123.666 125.639 123.505 127.265C124.824 127.638 128.269 127.363 129.756 127.427C134.777 127.642 145.374 126.725 150.149 127.463C150.105 125.555 150.149 121.177 149.838 119.469L149.514 119.211L149.714 118.244C149.837 118.003 149.975 117.74 149.981 117.402C150.13 108.293 150.061 99.0975 149.916 89.9893C149.809 89.8617 149.702 89.7341 149.595 89.6065L149.004 89.6939L148.432 88.499C150.032 86.6024 153.061 85.9386 155.442 85.0671ZM156.586 93.3092C156.438 93.4583 156.29 93.6074 156.142 93.7565C156.188 96.7243 155.429 116.422 156.295 118.029L156.549 118.196C157.918 117.902 163.564 118.048 165.204 118.071C166.16 118.068 166.541 118.15 167.374 117.752C168.031 113.336 166.86 107.618 168.306 102.612C165.126 99.2709 160.021 96.3808 156.586 93.3092ZM123.614 137.106C127.461 136.893 147.626 136.283 150.14 136.889C150.254 136.209 150.099 135.464 150.007 134.766C150.188 132.973 150.009 130.685 150.157 128.63C146.972 129.049 143.025 128.858 139.755 128.793C134.772 128.679 129.765 128.862 124.776 128.693L123.444 128.479C123.727 130.593 123.894 134.999 123.614 137.106ZM123.652 137.957C123.745 140.246 123.773 142.538 123.736 144.829C124.617 145.499 141.324 144.882 143.205 144.692C145.047 144.422 148.284 144.512 150.238 144.514C150.295 142.547 150.095 139.878 150.037 137.828C147.828 138.139 143.425 137.987 141.104 137.946C136.491 138.26 128.459 138.001 123.652 137.957ZM168.727 127.507C170.18 127.516 179.461 127.667 180.404 127.443C180.384 124.698 180.311 121.713 180.399 118.991C176.607 119.021 172.503 119.13 168.735 119.025C168.655 121.863 168.698 124.67 168.727 127.507ZM167.519 137.003C167.504 135.001 167.802 130.722 167.519 129.089C164.44 128.195 159.278 129.351 155.899 128.772C155.912 129.933 155.851 136.133 156.179 136.73L156.433 136.868C159.627 136.655 164.258 136.904 167.519 137.003ZM163.142 127.546C164.75 127.442 166.051 127.488 167.664 127.538C167.608 125.37 167.772 121.046 167.474 119.177C166.628 119.122 165.782 119.077 164.934 119.044C164.081 119.413 158.734 119.201 156.959 119.448C156.206 120.072 156.256 120.088 156.147 121.344C155.975 123.323 155.997 125.485 155.989 127.482C158.323 127.5 160.822 127.477 163.142 127.546ZM168.758 136.949C172.519 136.937 176.495 136.861 180.238 136.955C180.264 134.929 180.199 130.584 180.398 128.745L168.746 128.791C168.719 131.479 168.644 134.27 168.758 136.949ZM155.429 145.196C159.293 145.238 163.585 145.168 167.485 145.158C167.531 142.783 167.5 140.322 167.499 137.94C164.777 138.145 160.458 138.023 157.697 137.922L156.385 137.979C155.314 139.19 155.749 142.896 155.429 145.196ZM168.565 102.806C169.028 105.334 168.613 114.741 168.821 118.066C172.72 118.13 176.38 118.039 180.244 118.04C180.419 115.671 180.672 113.252 179.054 111.464C177.654 109.919 170.092 103.062 168.565 102.806ZM168.71 145.126C172.649 145.465 176.08 144.452 179.942 144.947L180.367 144.672C180.593 143.067 180.373 139.764 180.314 137.994C176.452 137.998 172.357 138.069 168.515 137.938C168.663 140.338 168.537 142.897 168.71 145.126Z"/><path fill="#9D9C9C" d="M155.442 85.0671C156.119 87.4251 155.317 89.1467 156.806 91.0392C156.052 92.303 156.785 91.8424 156.586 93.3092C156.438 93.4583 156.29 93.6074 156.142 93.7565C156.188 96.7243 155.429 116.422 156.295 118.029L156.549 118.196L156.657 118.446C156.796 118.76 156.894 118.944 157.057 119.24L156.959 119.448C156.206 120.072 156.256 120.088 156.147 121.344C155.975 123.323 155.997 125.485 155.989 127.482C158.323 127.5 160.822 127.477 163.142 127.546C160.643 128.131 152.734 128.033 150.149 127.463C150.105 125.555 150.149 121.177 149.838 119.469L149.514 119.211L149.714 118.244C149.837 118.003 149.975 117.74 149.981 117.402C150.13 108.293 150.061 99.0975 149.916 89.9893C149.809 89.8617 149.702 89.7341 149.595 89.6065L149.004 89.6939L148.432 88.499C150.032 86.6024 153.061 85.9386 155.442 85.0671Z"/><path fill="#9D9C9C" d="M152.207 128.432C153.176 128.396 154.831 128.248 155.698 128.498L155.899 128.772C155.912 129.933 155.851 136.133 156.179 136.73L156.433 136.868L155.811 137.061C153.938 137.236 152.488 137.163 150.61 137.097L150.14 136.889C150.254 136.209 150.099 135.464 150.007 134.766C150.188 132.973 150.009 130.685 150.157 128.63C150.746 128.283 151.483 128.411 152.207 128.432Z"/><path fill="#6B6D73" d="M150.157 128.63C150.746 128.283 151.483 128.411 152.207 128.432L151.407 128.91C151.051 130.529 153.196 130.706 153.783 132.113C153.402 133.387 151.301 133.45 150.007 134.766C150.188 132.973 150.009 130.685 150.157 128.63Z"/><path fill="#9D9C9C" d="M150.037 137.828C151.141 137.629 154.211 137.732 155.495 137.751C156.057 137.763 157.259 137.708 157.697 137.922L156.385 137.979C155.314 139.19 155.749 142.896 155.429 145.196C153.819 145.54 145.771 144.719 143.205 144.692C145.047 144.422 148.284 144.512 150.238 144.514C150.295 142.547 150.095 139.878 150.037 137.828Z"/><path fill="#E0E0E0" d="M123.614 137.106C127.461 136.893 147.626 136.283 150.14 136.889L150.61 137.097C152.488 137.163 153.938 137.236 155.811 137.061C155.499 137.508 155.535 137.289 155.495 137.751C154.211 137.732 151.141 137.629 150.037 137.828C147.828 138.139 143.425 137.987 141.104 137.946C136.491 138.26 128.459 138.001 123.652 137.957L123.614 137.106Z"/><path fill="#454648" d="M150.61 137.097C152.488 137.163 153.938 137.236 155.811 137.061C155.499 137.508 155.535 137.289 155.495 137.751C154.211 137.732 151.141 137.629 150.037 137.828C147.828 138.139 143.425 137.987 141.104 137.946C144.045 137.22 148.476 138.351 150.61 137.097Z"/><path fill="#E0E0E0" d="M122.542 118.171L123.501 117.716L123.498 117.999L123.497 119.216C123.619 120.843 123.666 125.639 123.505 127.265L123.444 128.479C123.727 130.593 123.894 134.999 123.614 137.106L123.652 137.957C123.745 140.246 123.773 142.538 123.736 144.829L123.521 145.006L123.093 144.921C122.645 143.743 122.911 142.039 122.624 140.608C122.551 133.043 122.389 125.759 122.542 118.171Z"/><path fill="#6B6D73" d="M142.242 145.988C146.892 145.36 150.639 145.944 154.981 145.926C154.644 147.531 154.91 150.384 154.737 152.256C152.321 151.715 151.966 152.304 151.231 149.904C150.937 149.089 151.016 146.952 151.024 146.007L142.242 145.988Z"/><path fill="#6B6D73" d="M156.549 118.196C157.918 117.902 163.564 118.048 165.204 118.071C163.132 118.293 162.048 118.112 159.956 118.62C161.112 118.929 163.489 118.834 164.934 119.044C164.081 119.413 158.734 119.201 156.959 119.448L157.057 119.24C156.894 118.944 156.796 118.76 156.657 118.446L156.549 118.196Z"/><defs><linearGradient id="gradient_0_light" gradientUnits="userSpaceOnUse" x1="200.49136" y1="181.7596" x2="200.84813" y2="203.75922"><stop offset="0" stop-color="#FFFFFF"/><stop offset="1" stop-color="#E0E0E0"/></linearGradient></defs><path fill="url(#gradient_0_light)" d="M183.9 196.357C197.244 195.431 204.241 189.96 214.024 182.054C214.786 181.437 216.553 180.734 217.492 181.415C217.745 182.297 217.364 183.204 216.879 183.959C210.867 193.299 202.375 200.989 191.381 203.704C189.313 204.214 186.35 204.866 184.316 204.598C184.085 201.394 184.54 200.613 183.9 196.357Z"/><path fill="#FFFFFF" d="M118.781 178.874C121.531 178.748 124.315 178.774 127.07 178.767C126.953 182.441 127.353 192.098 126.929 195.156C126.435 195.484 126.314 195.386 125.69 195.344L118.773 195.369C118.723 192.81 118.315 180.438 118.781 178.874Z"/><path fill="#FFFFFF" d="M130.687 175.235C133.472 175.374 136.262 175.407 139.049 175.333C139.119 178.878 139.168 187.427 138.84 191.383C138.673 191.558 138.507 191.733 138.34 191.908C136.207 191.663 132.933 191.822 130.818 192.055C130.62 187.822 130.445 179.3 130.687 175.235Z"/><path fill="#FFFFFF" d="M118.393 204.017C121.379 203.714 123.515 203.707 126.498 204.012C126.497 209.204 126.639 215.319 126.427 220.436C123.601 220.429 120.546 220.472 117.741 220.355C118.355 218.209 118.252 212.047 118.267 209.471C118.306 207.668 118.323 205.815 118.393 204.017Z"/><path fill="#FFFFFF" d="M130.95 199.204C133.687 199.106 136.313 199.298 139.249 199.145C139.038 204.806 139.052 210.139 139.046 215.799L130.726 215.971C130.749 210.44 130.968 204.643 130.95 199.204Z"/><path fill="#E0E0E0" d="M314.612 197.408C314.611 196.049 314.362 195.509 315.019 194.565C323.544 200.682 332.497 208.239 340.925 214.688C344.745 217.61 355.128 225.568 358.22 228.671C353.333 226.604 339.124 215.777 334.132 212.06C329.013 208.249 319.137 201.332 314.612 197.408Z"/><path fill="#E0E0E0" fill-opacity="0.98431373" d="M122.542 118.171C122.67 116.33 122.879 114.532 123.834 112.91C125.854 109.478 144.219 92.322 148.432 88.499L149.004 89.6939C143.34 94.2643 137.862 99.601 132.65 104.686C129.55 107.71 123.161 113.2 123.501 117.716L122.542 118.171Z"/><path fill="#E0E0E0" d="M123.498 117.999C131.884 118.175 141.614 117.846 149.714 118.244L149.514 119.211L149.838 119.469C146.486 119.639 124.681 118.404 123.497 119.216L123.498 117.999Z"/><path fill="#E0E0E0" d="M43.6642 136.827C46.1166 132.383 49.0393 130.718 53.0402 127.591C53.61 129.77 53.7087 128.385 54.7761 129.546C51.9809 131.687 46.8183 135.501 43.6642 136.827Z"/><path fill="#5265A7" d="M181.885 145.566C182.089 148.041 181.888 150.562 182.096 152.998L180.55 152.779C180.473 150.392 180.485 148.235 180.522 145.853C181.273 145.898 181.222 145.917 181.885 145.566Z"/><path fill="#D0C2FD" fill-opacity="0.015686275" d="M117.793 209.392L118.267 209.471C118.252 212.047 118.355 218.209 117.741 220.355C117.167 220.374 117.383 220.385 116.813 220.158L117.14 219.902C117.102 217.798 117.469 211.326 117.793 209.392Z"/><path fill="#5265A7" d="M167.279 146.076C167.92 146.127 168.049 146.251 168.521 145.998C168.571 148.079 168.644 150.159 168.739 152.238L167.594 152.334C167.452 150.906 167.703 146.849 167.279 146.076Z"/></svg>
